<svg width="186" height="30" viewBox="0 0 186 30" fill="none" xmlns="http://www.w3.org/2000/svg">
<path d="M59.7 19.95H50.95L49.225 24H45.875L53.75 6.5H56.95L64.85 24H61.45L59.7 19.95ZM58.625 17.4L55.325 9.75L52.05 17.4H58.625ZM72.7785 24.175C71.3952 24.175 70.1535 23.8833 69.0535 23.3C67.9535 22.7167 67.0952 21.9083 66.4785 20.875C65.8618 19.825 65.5535 18.6417 65.5535 17.325C65.5535 16.0083 65.8618 14.8333 66.4785 13.8C67.0952 12.7667 67.9452 11.9583 69.0285 11.375C70.1285 10.7917 71.3785 10.5 72.7785 10.5C74.0952 10.5 75.2452 10.7667 76.2285 11.3C77.2285 11.8333 77.9785 12.6 78.4785 13.6L76.0785 15C75.6952 14.3833 75.2118 13.925 74.6285 13.625C74.0618 13.3083 73.4368 13.15 72.7535 13.15C71.5868 13.15 70.6202 13.5333 69.8535 14.3C69.0868 15.05 68.7035 16.0583 68.7035 17.325C68.7035 18.5917 69.0785 19.6083 69.8285 20.375C70.5952 21.125 71.5702 21.5 72.7535 21.5C73.4368 21.5 74.0618 21.35 74.6285 21.05C75.2118 20.7333 75.6952 20.2667 76.0785 19.65L78.4785 21.05C77.9618 22.05 77.2035 22.825 76.2035 23.375C75.2202 23.9083 74.0785 24.175 72.7785 24.175ZM87.1096 24.175C85.7262 24.175 84.4846 23.8833 83.3846 23.3C82.2846 22.7167 81.4262 21.9083 80.8096 20.875C80.1929 19.825 79.8846 18.6417 79.8846 17.325C79.8846 16.0083 80.1929 14.8333 80.8096 13.8C81.4262 12.7667 82.2762 11.9583 83.3596 11.375C84.4596 10.7917 85.7096 10.5 87.1096 10.5C88.4262 10.5 89.5762 10.7667 90.5596 11.3C91.5596 11.8333 92.3096 12.6 92.8096 13.6L90.4096 15C90.0262 14.3833 89.5429 13.925 88.9596 13.625C88.3929 13.3083 87.7679 13.15 87.0846 13.15C85.9179 13.15 84.9512 13.5333 84.1846 14.3C83.4179 15.05 83.0346 16.0583 83.0346 17.325C83.0346 18.5917 83.4096 19.6083 84.1596 20.375C84.9262 21.125 85.9012 21.5 87.0846 21.5C87.7679 21.5 88.3929 21.35 88.9596 21.05C89.5429 20.7333 90.0262 20.2667 90.4096 19.65L92.8096 21.05C92.2929 22.05 91.5346 22.825 90.5346 23.375C89.5512 23.9083 88.4096 24.175 87.1096 24.175ZM107.866 17.4C107.866 17.6167 107.849 17.925 107.816 18.325H97.3406C97.524 19.3083 97.999 20.0917 98.7656 20.675C99.549 21.2417 100.516 21.525 101.666 21.525C103.132 21.525 104.341 21.0417 105.291 20.075L106.966 22C106.366 22.7167 105.607 23.2583 104.691 23.625C103.774 23.9917 102.741 24.175 101.591 24.175C100.124 24.175 98.8323 23.8833 97.7156 23.3C96.599 22.7167 95.7323 21.9083 95.1156 20.875C94.5156 19.825 94.2156 18.6417 94.2156 17.325C94.2156 16.025 94.5073 14.8583 95.0906 13.825C95.6906 12.775 96.5156 11.9583 97.5656 11.375C98.6156 10.7917 99.799 10.5 101.116 10.5C102.416 10.5 103.574 10.7917 104.591 11.375C105.624 11.9417 106.424 12.75 106.991 13.8C107.574 14.8333 107.866 16.0333 107.866 17.4ZM101.116 13C100.116 13 99.2656 13.3 98.5656 13.9C97.8823 14.4833 97.4656 15.2667 97.3156 16.25H104.891C104.757 15.2833 104.349 14.5 103.666 13.9C102.982 13.3 102.132 13 101.116 13ZM114.992 24.175C113.909 24.175 112.851 24.0333 111.817 23.75C110.784 23.4667 109.959 23.1083 109.342 22.675L110.542 20.3C111.142 20.7 111.859 21.025 112.692 21.275C113.542 21.5083 114.376 21.625 115.192 21.625C117.059 21.625 117.992 21.1333 117.992 20.15C117.992 19.6833 117.751 19.3583 117.267 19.175C116.801 18.9917 116.042 18.8167 114.992 18.65C113.892 18.4833 112.992 18.2917 112.292 18.075C111.609 17.8583 111.009 17.4833 110.492 16.95C109.992 16.4 109.742 15.6417 109.742 14.675C109.742 13.4083 110.267 12.4 111.317 11.65C112.384 10.8833 113.817 10.5 115.617 10.5C116.534 10.5 117.451 10.6083 118.367 10.825C119.284 11.025 120.034 11.3 120.617 11.65L119.417 14.025C118.284 13.3583 117.009 13.025 115.592 13.025C114.676 13.025 113.976 13.1667 113.492 13.45C113.026 13.7167 112.792 14.075 112.792 14.525C112.792 15.025 113.042 15.3833 113.542 15.6C114.059 15.8 114.851 15.9917 115.917 16.175C116.984 16.3417 117.859 16.5333 118.542 16.75C119.226 16.9667 119.809 17.3333 120.292 17.85C120.792 18.3667 121.042 19.1 121.042 20.05C121.042 21.3 120.501 22.3 119.417 23.05C118.334 23.8 116.859 24.175 114.992 24.175ZM127.859 24.175C126.775 24.175 125.717 24.0333 124.684 23.75C123.65 23.4667 122.825 23.1083 122.209 22.675L123.409 20.3C124.009 20.7 124.725 21.025 125.559 21.275C126.409 21.5083 127.242 21.625 128.059 21.625C129.925 21.625 130.859 21.1333 130.859 20.15C130.859 19.6833 130.617 19.3583 130.134 19.175C129.667 18.9917 128.909 18.8167 127.859 18.65C126.759 18.4833 125.859 18.2917 125.159 18.075C124.475 17.8583 123.875 17.4833 123.359 16.95C122.859 16.4 122.609 15.6417 122.609 14.675C122.609 13.4083 123.134 12.4 124.184 11.65C125.25 10.8833 126.684 10.5 128.484 10.5C129.4 10.5 130.317 10.6083 131.234 10.825C132.15 11.025 132.9 11.3 133.484 11.65L132.284 14.025C131.15 13.3583 129.875 13.025 128.459 13.025C127.542 13.025 126.842 13.1667 126.359 13.45C125.892 13.7167 125.659 14.075 125.659 14.525C125.659 15.025 125.909 15.3833 126.409 15.6C126.925 15.8 127.717 15.9917 128.784 16.175C129.85 16.3417 130.725 16.5333 131.409 16.75C132.092 16.9667 132.675 17.3333 133.159 17.85C133.659 18.3667 133.909 19.1 133.909 20.05C133.909 21.3 133.367 22.3 132.284 23.05C131.2 23.8 129.725 24.175 127.859 24.175ZM154.714 14.975C155.964 15.2083 156.914 15.7 157.564 16.45C158.23 17.2 158.564 18.175 158.564 19.375C158.564 20.8583 158.022 22 156.939 22.8C155.855 23.6 154.247 24 152.114 24H144.314V6.5H151.614C153.514 6.5 154.989 6.89167 156.039 7.675C157.105 8.44167 157.639 9.54167 157.639 10.975C157.639 11.975 157.372 12.8167 156.839 13.5C156.322 14.1833 155.614 14.675 154.714 14.975ZM145.589 7.6V14.575H151.564C153.097 14.575 154.272 14.2833 155.089 13.7C155.922 13.1 156.339 12.225 156.339 11.075C156.339 9.94167 155.922 9.08333 155.089 8.5C154.272 7.9 153.097 7.6 151.564 7.6H145.589ZM152.114 22.9C153.814 22.9 155.097 22.6083 155.964 22.025C156.847 21.425 157.289 20.5083 157.289 19.275C157.289 18.0417 156.847 17.1333 155.964 16.55C155.097 15.9667 153.814 15.675 152.114 15.675H145.589V22.9H152.114ZM167.813 24.1C166.579 24.1 165.463 23.8167 164.463 23.25C163.479 22.6833 162.704 21.9 162.138 20.9C161.571 19.8833 161.288 18.7417 161.288 17.475C161.288 16.2083 161.571 15.075 162.138 14.075C162.704 13.0583 163.479 12.2667 164.463 11.7C165.463 11.1333 166.579 10.85 167.813 10.85C169.046 10.85 170.154 11.1333 171.138 11.7C172.138 12.2667 172.921 13.0583 173.488 14.075C174.054 15.075 174.338 16.2083 174.338 17.475C174.338 18.7417 174.054 19.8833 173.488 20.9C172.921 21.9 172.138 22.6833 171.138 23.25C170.154 23.8167 169.046 24.1 167.813 24.1ZM167.813 22.975C168.813 22.975 169.704 22.7417 170.488 22.275C171.288 21.8083 171.913 21.1583 172.363 20.325C172.829 19.4917 173.063 18.5417 173.063 17.475C173.063 16.4083 172.829 15.4583 172.363 14.625C171.913 13.7917 171.288 13.1417 170.488 12.675C169.704 12.2083 168.813 11.975 167.813 11.975C166.813 11.975 165.913 12.2083 165.113 12.675C164.329 13.1417 163.704 13.7917 163.238 14.625C162.788 15.4583 162.563 16.4083 162.563 17.475C162.563 18.5417 162.788 19.4917 163.238 20.325C163.704 21.1583 164.329 21.8083 165.113 22.275C165.913 22.7417 166.813 22.975 167.813 22.975ZM184.69 23.175C184.374 23.475 183.974 23.7083 183.49 23.875C183.024 24.025 182.532 24.1 182.015 24.1C180.882 24.1 180.007 23.7917 179.39 23.175C178.774 22.5417 178.465 21.6667 178.465 20.55V12.025H176.065V10.95H178.465V8.1H179.715V10.95H183.865V12.025H179.715V20.425C179.715 21.275 179.915 21.925 180.315 22.375C180.732 22.8083 181.34 23.025 182.14 23.025C182.957 23.025 183.632 22.7833 184.165 22.3L184.69 23.175Z" fill="#2B2B2B"/>
<g clip-path="url(#clip0_7_76)">
<path d="M29.8003 2.32133H7.92792C4.27918 2.32133 1.32129 5.27922 1.32129 8.92796V21.072C1.32129 24.7208 4.27918 27.6787 7.92792 27.6787H29.8003C33.449 27.6787 36.4069 24.7208 36.4069 21.072V8.92796C36.4069 5.27922 33.449 2.32133 29.8003 2.32133Z" stroke="#2B2B2B" stroke-width="2.64265" stroke-miterlimit="10"/>
<path d="M11.1888 10.2063V15.0138V19.7931" stroke="#2B2B2B" stroke-width="2.64265" stroke-miterlimit="10"/>
<path d="M24.83 11.0922L28.7515 15.0138L24.83 18.9359" stroke="#2B2B2B" stroke-width="2.64265" stroke-miterlimit="10"/>
</g>
<defs>
<clipPath id="clip0_7_76">
<rect width="37.7283" height="28" fill="white" transform="translate(0 1)"/>
</clipPath>
</defs>
</svg>
